<svg xmlns="http://www.w3.org/2000/svg" width="116.259" height="16.492" viewBox="0 0 116.259 16.492">
  <g id="Group_22" data-name="Group 22" transform="translate(0 -35.261)" opacity="0.16">
    <path id="Path_26" data-name="Path 26" d="M6.91,0a6.91,6.91,0,1,0,6.91,6.91A6.918,6.918,0,0,0,6.91,0Z" transform="translate(23.079 36.369)" fill="#fff"/>
    <path id="Path_27" data-name="Path 27" d="M8.246,16.493A8.246,8.246,0,1,0,0,8.246,8.256,8.256,0,0,0,8.246,16.493Z" transform="translate(50.485 35.261)" fill="#fff"/>
    <path id="Path_28" data-name="Path 28" d="M6.13,12.26A6.13,6.13,0,1,0,0,6.13,6.137,6.137,0,0,0,6.13,12.26Z" transform="translate(80.601 36.944)" fill="#fff"/>
    <path id="Path_29" data-name="Path 29" d="M5.541,0a5.541,5.541,0,1,0,5.541,5.541A5.548,5.548,0,0,0,5.541,0Z" transform="translate(0 37.933)" fill="#fff"/>
    <path id="Path_30" data-name="Path 30" d="M5.541,0a5.541,5.541,0,1,0,5.541,5.541A5.548,5.548,0,0,0,5.541,0Z" transform="translate(105.177 38)" fill="#fff"/>
  </g>
</svg>
