<svg xmlns="http://www.w3.org/2000/svg" width="462.928" height="311.548" viewBox="0 0 462.928 311.548">
  <g id="Group_40" data-name="Group 40" transform="translate(4.892 34.93)">
    <g id="Group_2" data-name="Group 2" transform="translate(17.991 -96.468) rotate(21)">
      <g id="Group_6" data-name="Group 6" transform="translate(210.67 219.707) rotate(-135)" opacity="0.68">
        <path id="Path_26" data-name="Path 26" d="M15.911,0A15.911,15.911,0,1,0,31.821,15.911,15.929,15.929,0,0,0,15.911,0Z" transform="translate(41.42 83.741)" fill="#02adc8"/>
        <path id="Path_27" data-name="Path 27" d="M18.987,37.974A18.987,18.987,0,1,0,0,18.987,19.009,19.009,0,0,0,18.987,37.974Z" transform="translate(89.249 81.189)" fill="#fff"/>
        <path id="Path_28" data-name="Path 28" d="M14.114,28.228A14.114,14.114,0,1,0,0,14.114,14.13,14.13,0,0,0,14.114,28.228Z" transform="translate(94.122 39.015)" fill="#fff"/>
        <path id="Path_29" data-name="Path 29" d="M12.759,0A12.759,12.759,0,1,0,25.518,12.759,12.774,12.774,0,0,0,12.759,0Z" transform="translate(0 87.342)" fill="#fff"/>
        <path id="Path_30" data-name="Path 30" d="M12.759,0A12.759,12.759,0,1,0,25.518,12.759,12.774,12.774,0,0,0,12.759,0Z" transform="translate(95.446 0)" fill="#fff"/>
      </g>
      <g id="Group_7" data-name="Group 7" transform="translate(78.896 0) rotate(45)" opacity="0.68">
        <path id="Path_26-2" data-name="Path 26" d="M14.9,0A14.9,14.9,0,1,0,29.8,14.9,14.915,14.915,0,0,0,14.9,0Z" transform="translate(38.783 78.409)" fill="#fff"/>
        <path id="Path_27-2" data-name="Path 27" d="M17.778,35.557A17.778,17.778,0,1,0,0,17.778,17.8,17.8,0,0,0,17.778,35.557Z" transform="translate(83.567 76.02)" fill="#fff"/>
        <path id="Path_28-2" data-name="Path 28" d="M13.216,26.431A13.216,13.216,0,1,0,0,13.216,13.23,13.23,0,0,0,13.216,26.431Z" transform="translate(88.129 36.531)" fill="#fff"/>
        <path id="Path_29-2" data-name="Path 29" d="M11.947,0A11.947,11.947,0,1,0,23.894,11.947,11.96,11.96,0,0,0,11.947,0Z" transform="translate(0 81.782)" fill="#fff"/>
        <path id="Path_30-2" data-name="Path 30" d="M11.947,0A11.947,11.947,0,1,0,23.894,11.947,11.96,11.96,0,0,0,11.947,0Z" transform="translate(89.37 0)" fill="#02adc8"/>
      </g>
    </g>
    <g id="Group_8" data-name="Group 8" transform="translate(167.991 31.532) rotate(21)">
      <g id="Group_6-2" data-name="Group 6" transform="translate(210.67 219.707) rotate(-135)" opacity="0.68">
        <path id="Path_26-3" data-name="Path 26" d="M15.911,0A15.911,15.911,0,1,0,31.821,15.911,15.929,15.929,0,0,0,15.911,0Z" transform="translate(41.42 83.741)" fill="#fff"/>
        <path id="Path_27-3" data-name="Path 27" d="M18.987,37.974A18.987,18.987,0,1,0,0,18.987,19.009,19.009,0,0,0,18.987,37.974Z" transform="translate(89.249 81.189)" fill="#02adc8"/>
        <path id="Path_28-3" data-name="Path 28" d="M14.114,28.228A14.114,14.114,0,1,0,0,14.114,14.13,14.13,0,0,0,14.114,28.228Z" transform="translate(94.122 39.015)" fill="#fff"/>
        <path id="Path_29-3" data-name="Path 29" d="M12.759,0A12.759,12.759,0,1,0,25.518,12.759,12.774,12.774,0,0,0,12.759,0Z" transform="translate(0 87.342)" fill="#fff"/>
        <path id="Path_30-3" data-name="Path 30" d="M12.759,0A12.759,12.759,0,1,0,25.518,12.759,12.774,12.774,0,0,0,12.759,0Z" transform="translate(95.446 0)" fill="#02adc8"/>
      </g>
      <g id="Group_7-2" data-name="Group 7" transform="translate(78.896 0) rotate(45)" opacity="0.68">
        <path id="Path_26-4" data-name="Path 26" d="M14.9,0A14.9,14.9,0,1,0,29.8,14.9,14.915,14.915,0,0,0,14.9,0Z" transform="translate(38.783 78.409)" fill="#fff"/>
        <path id="Path_27-4" data-name="Path 27" d="M17.778,35.557A17.778,17.778,0,1,0,0,17.778,17.8,17.8,0,0,0,17.778,35.557Z" transform="translate(83.567 76.02)" fill="#fff"/>
        <path id="Path_28-4" data-name="Path 28" d="M13.216,26.431A13.216,13.216,0,1,0,0,13.216,13.23,13.23,0,0,0,13.216,26.431Z" transform="translate(88.129 36.531)" fill="#fff"/>
        <path id="Path_29-4" data-name="Path 29" d="M11.947,0A11.947,11.947,0,1,0,23.894,11.947,11.96,11.96,0,0,0,11.947,0Z" transform="translate(0 81.782)" fill="#fff"/>
        <path id="Path_30-4" data-name="Path 30" d="M11.947,0A11.947,11.947,0,1,0,23.894,11.947,11.96,11.96,0,0,0,11.947,0Z" transform="translate(89.37 0)" fill="#fff"/>
      </g>
    </g>
    <g id="Group_9" data-name="Group 9" transform="translate(236.991 -49.468) rotate(21)">
      <g id="Group_6-3" data-name="Group 6" transform="translate(210.67 219.707) rotate(-135)" opacity="0.68">
        <path id="Path_26-5" data-name="Path 26" d="M15.911,0A15.911,15.911,0,1,0,31.821,15.911,15.929,15.929,0,0,0,15.911,0Z" transform="translate(41.42 83.741)" fill="#fff"/>
        <path id="Path_27-5" data-name="Path 27" d="M18.987,37.974A18.987,18.987,0,1,0,0,18.987,19.009,19.009,0,0,0,18.987,37.974Z" transform="translate(89.249 81.189)" fill="#fff"/>
        <path id="Path_28-5" data-name="Path 28" d="M14.114,28.228A14.114,14.114,0,1,0,0,14.114,14.13,14.13,0,0,0,14.114,28.228Z" transform="translate(94.122 39.015)" fill="#fff"/>
        <path id="Path_29-5" data-name="Path 29" d="M12.759,0A12.759,12.759,0,1,0,25.518,12.759,12.774,12.774,0,0,0,12.759,0Z" transform="translate(0 87.342)" fill="#fff"/>
        <path id="Path_30-5" data-name="Path 30" d="M12.759,0A12.759,12.759,0,1,0,25.518,12.759,12.774,12.774,0,0,0,12.759,0Z" transform="translate(95.446 0)" fill="#fff"/>
      </g>
      <g id="Group_7-3" data-name="Group 7" transform="translate(78.896 0) rotate(45)" opacity="0.68">
        <path id="Path_26-6" data-name="Path 26" d="M14.9,0A14.9,14.9,0,1,0,29.8,14.9,14.915,14.915,0,0,0,14.9,0Z" transform="translate(38.783 78.409)" fill="#fff"/>
        <path id="Path_27-6" data-name="Path 27" d="M17.778,35.556A17.778,17.778,0,1,0,0,17.778,17.8,17.8,0,0,0,17.778,35.556Z" transform="translate(83.567 76.02)" fill="#fff"/>
        <path id="Path_28-6" data-name="Path 28" d="M13.216,26.431A13.216,13.216,0,1,0,0,13.216,13.23,13.23,0,0,0,13.216,26.431Z" transform="translate(88.129 36.531)" fill="#02adc8"/>
        <path id="Path_29-6" data-name="Path 29" d="M11.947,0A11.947,11.947,0,1,0,23.894,11.947,11.96,11.96,0,0,0,11.947,0Z" transform="translate(0 81.782)" fill="#fff"/>
        <path id="Path_30-6" data-name="Path 30" d="M11.947,0A11.947,11.947,0,1,0,23.894,11.947,11.96,11.96,0,0,0,11.947,0Z" transform="translate(89.37 0)" fill="#fff"/>
      </g>
    </g>
  </g>
</svg>
