<svg xmlns="http://www.w3.org/2000/svg" width="42" height="40.251" viewBox="0 0 42 40.251">
  <path id="github" d="M21,.5A20.818,20.818,0,0,0,0,21.136,20.67,20.67,0,0,0,14.359,40.715c1.05.194,1.435-.444,1.435-.992,0-.49-.017-1.789-.026-3.509-5.842,1.244-7.073-2.769-7.073-2.769a5.5,5.5,0,0,0-2.336-3.019c-1.9-1.279.147-1.253.147-1.253A4.393,4.393,0,0,1,9.721,31.3c1.873,3.155,4.916,2.243,6.116,1.717a4.369,4.369,0,0,1,1.33-2.76C12.5,29.741,7.6,27.966,7.6,20.06a7.884,7.884,0,0,1,2.161-5.537,7.22,7.22,0,0,1,.184-5.462s1.759-.553,5.775,2.116a20.135,20.135,0,0,1,10.5,0c3.99-2.669,5.749-2.116,5.749-2.116a7.419,7.419,0,0,1,.21,5.462,7.916,7.916,0,0,1,2.153,5.537c0,7.928-4.909,9.672-9.581,10.18a4.9,4.9,0,0,1,1.417,3.819c0,2.761-.026,4.98-.026,5.651,0,.541.367,1.186,1.444.98A20.608,20.608,0,0,0,42,21.136,20.821,20.821,0,0,0,21,.5Z" transform="translate(0 -0.5)" fill="#fff"/>
</svg>
