<svg xmlns="http://www.w3.org/2000/svg" width="40.282" height="40.25" viewBox="0 0 40.282 40.25">
  <g id="logo" transform="translate(0 -0.2)">
    <g id="Group_1" data-name="Group 1" transform="translate(0 0.2)">
      <path id="Path_1" data-name="Path 1" d="M30.156.2H10.095A10.116,10.116,0,0,0,0,10.295V30.388A10.109,10.109,0,0,0,10.095,40.45H30.188A10.116,10.116,0,0,0,40.282,30.356V10.295A10.164,10.164,0,0,0,30.156.2ZM13.417,32.784H7.667V16.172h5.75ZM10.51,13.617a2.939,2.939,0,1,1,2.939-2.939A2.973,2.973,0,0,1,10.51,13.617ZM32.615,32.784H27.792v-8.05c0-1.949-.256-4.44-2.907-4.44-2.715,0-3.163,2.108-3.163,4.313v8.178H16.931V16.172H21.4v2.236h.128c.7-1.278,2.332-2.268,4.888-2.268,5.271,0,6.2,3.035,6.2,7.539v9.1Z" transform="translate(0 -0.2)" fill="#fff"/>
    </g>
  </g>
</svg>
