<svg xmlns="http://www.w3.org/2000/svg" width="331.063" height="237.444" viewBox="0 0 331.063 237.444">
  <g id="mail" transform="translate(0 -72.392)">
    <g id="Group_52" data-name="Group 52" transform="translate(241.519 102.17)">
      <g id="Group_51" data-name="Group 51">
        <path id="Path_43" data-name="Path 43" d="M462.808,118.445l-89.291,88.941,89.249,88.877C463.253,290.1,463.041,121.35,462.808,118.445Z" transform="translate(-373.517 -118.445)" fill="#fff"/>
      </g>
    </g>
    <g id="Group_54" data-name="Group 54" transform="translate(9.969 72.392)">
      <g id="Group_53" data-name="Group 53">
        <path id="Path_44" data-name="Path 44" d="M304.093,72.392H37.868a32.428,32.428,0,0,0-22.45,8.989L163.342,228.724a10.809,10.809,0,0,0,15.262.018L326.492,81.432A32.152,32.152,0,0,0,304.093,72.392Z" transform="translate(-15.418 -72.392)" fill="#fff"/>
      </g>
    </g>
    <g id="Group_56" data-name="Group 56" transform="translate(0 102.179)">
      <g id="Group_55" data-name="Group 55">
        <path id="Path_45" data-name="Path 45" d="M.262,118.458C.02,121.438-.2,290.152.3,296.314L89.715,207.56Z" transform="translate(0 -118.458)" fill="#fff"/>
      </g>
    </g>
    <g id="Group_58" data-name="Group 58" transform="translate(10.05 206.346)">
      <g id="Group_57" data-name="Group 57">
        <path id="Path_46" data-name="Path 46" d="M231.716,279.557,193.9,317.228a32.358,32.358,0,0,1-45.758-.015L110.5,279.723,15.543,373.98a32.21,32.21,0,0,0,22.369,9.067H304.137a32.213,32.213,0,0,0,22.384-9.08Z" transform="translate(-15.543 -279.557)" fill="#fff"/>
      </g>
    </g>
  </g>
</svg>
