<svg xmlns="http://www.w3.org/2000/svg" width="40.25" height="40.25" viewBox="0 0 40.25 40.25">
  <path id="logo_1_" data-name="logo (1)" d="M20.125,0A20.125,20.125,0,1,0,40.25,20.125,20.127,20.127,0,0,0,20.125,0Zm9.189,15.691q.013.3.013.6A13.054,13.054,0,0,1,16.184,29.431h0A13.075,13.075,0,0,1,9.1,27.356a9.4,9.4,0,0,0,1.1.064,9.269,9.269,0,0,0,5.737-1.977,4.624,4.624,0,0,1-4.315-3.208,4.6,4.6,0,0,0,2.086-.079,4.62,4.62,0,0,1-3.706-4.528c0-.021,0-.04,0-.059a4.587,4.587,0,0,0,2.092.578,4.623,4.623,0,0,1-1.43-6.167,13.115,13.115,0,0,0,9.521,4.826,4.622,4.622,0,0,1,7.872-4.213A9.265,9.265,0,0,0,31,11.472a4.637,4.637,0,0,1-2.031,2.555,9.213,9.213,0,0,0,2.653-.727,9.387,9.387,0,0,1-2.3,2.392Zm0,0" fill="#fff"/>
</svg>
